<svg id="Layer_1" data-name="Layer 1" xmlns="http://www.w3.org/2000/svg" viewBox="0 0 454.89 207.15"><defs><style>.cls-1{fill:#fff;}.cls-2{fill:#0072bc;}</style></defs><path class="cls-1" d="M514.81,315.88c.81,6.88-3.81,13.08-10.32,13.85l-407.6,48c-6.51.77-12.44-4.19-13.25-11.07L69.82,249.4c-.81-6.88,3.8-13.08,10.31-13.85l407.6-48c6.51-.77,12.44,4.19,13.25,11.07Z" transform="translate(-64.26 -180.13)"/><path class="cls-2" d="M172.76,266.19c-6-3.3-14.46-4-25.59-2A156.67,156.67,0,0,0,123,270l12.85,75.89,17.88-3.09-4.67-27.63a32.25,32.25,0,0,0,6.24-.61c10.66-1.85,19.45-6.08,24.68-12.62,4-5.05,5.44-11.87,4.14-19.51S178.49,269.07,172.76,266.19Zm-19.82,35a29.18,29.18,0,0,1-6.12.57L143,279.1a34,34,0,0,1,7.38-1.86c9.1-1.58,14.8,1.78,16,8.85C167.67,293.85,162.54,299.55,152.94,301.23Zm366,10.22-8.67-111.12c-1.66-13.66-13.69-21.49-25.7-20l-401,46.77c-12,1.45-20.74,14.89-19.08,28.56L77.21,367.08c1.67,13.66,15.13,21.48,27.13,20l395.85-48.27C512.21,337.37,520.6,325.12,518.94,311.45ZM111,361.34,95.31,258.56l101-16L212,345.35Zm104.24-45.1,48.55,2.13.6-13.67-32.75-1.43.77-17.49,29.32,1.29.59-13.56L233,272.23l.67-15.3,31.09,1.36.6-13.66-49.17-2.15-2.72,62.12-10.8-70.88-18.73,3-.47-6.9L287,223.17l6.45,107L218.06,335Zm63.84,31-.49-8.31,23-1.48-.24-3.91-2-33.21c3.25,16.41,15.89,28.28,37.75,29.33,9.27.44,16.7-1.05,19.86-2.38l-1.86-13.86a41.3,41.3,0,0,1-14.77,1.81c-15.47-.73-24.15-10.9-23.41-26.35.82-17.28,12-25.12,25.73-24.47a37,37,0,0,1,14.5,3.57l4.32-13.57c-3-1.75-9.79-3.91-18.84-4.34-23.12-1.11-42.41,12.26-44,38.06l-3.08-50.93,81.87-4.87L383.87,341Zm186.41-21-74.63-1.67-1.14-19.31a60.29,60.29,0,0,0,16.94,4.94c22,2.91,33.69-6.83,35.41-19.89,1.47-11.08-4.11-19.11-17.6-26.06-9.95-5.31-14.07-8.09-13.41-13.06.53-3.92,4.8-7,12.66-6a38.85,38.85,0,0,1,16.16,5.88l5.9-13.54c-4.48-2.82-10.77-5.43-19.93-6.63-18.8-2.49-31.66,6-33.41,19.32-1.51,11.44,6.34,19.76,19,26.14,9.21,4.52,12.63,7.89,12,12.64-.7,5.19-5.54,8-13.85,6.86a57.87,57.87,0,0,1-20.93-7.63L384.88,224l-22.28,1.32.27-11.8,105.05,2.35Z" transform="translate(-64.26 -180.13)"/><path class="cls-1" d="M484.67,251.89a9,9,0,1,1-9.29,9,9.07,9.07,0,0,1,9.24-9Zm-.11,1.81a7.17,7.17,0,0,0,.11,14.33,6.85,6.85,0,0,0,6.84-7.17,6.93,6.93,0,0,0-6.89-7.16Zm-1.36,11.81h-2.08V256.6a16.93,16.93,0,0,1,3.44-.33,5,5,0,0,1,3.12.71,2.46,2.46,0,0,1,.88,1.92A2.32,2.32,0,0,1,486.7,261v.11a2.56,2.56,0,0,1,1.64,2.19,6,6,0,0,0,.65,2.18h-2.24a7,7,0,0,1-.71-2.13c-.16-1-.71-1.42-1.86-1.42h-1Zm.05-5h1c1.15,0,2.07-.38,2.07-1.31s-.6-1.37-1.91-1.37a5.25,5.25,0,0,0-1.15.11Z" transform="translate(-64.26 -180.13)"/></svg>